<mxfile host="app.diagrams.net" agent="Mozilla/5.0 (X11; Linux x86_64; rv:137.0) Gecko/20100101 Firefox/137.0" version="26.2.14">
  <diagram name="Page-1" id="YyEUH7zfQG6QWCyt9D7E">
    <mxGraphModel dx="3801" dy="2181" grid="1" gridSize="10" guides="1" tooltips="1" connect="1" arrows="1" fold="1" page="1" pageScale="1" pageWidth="850" pageHeight="1100" math="0" shadow="0">
      <root>
        <mxCell id="0" />
        <mxCell id="1" parent="0" />
        <mxCell id="O3rCFAfjAUZ07n1w3Qb9-30" value="goodreads_book_works" style="swimlane;fontStyle=0;childLayout=stackLayout;horizontal=1;startSize=30;horizontalStack=0;resizeParent=1;resizeParentMax=0;resizeLast=0;collapsible=1;marginBottom=0;whiteSpace=wrap;html=1;shadow=0;glass=0;" parent="1" vertex="1">
          <mxGeometry x="-165" y="20" width="195" height="510" as="geometry" />
        </mxCell>
        <mxCell id="O3rCFAfjAUZ07n1w3Qb9-31" value="books_count" style="text;strokeColor=none;fillColor=none;align=left;verticalAlign=middle;spacingLeft=4;spacingRight=4;overflow=hidden;points=[[0,0.5],[1,0.5]];portConstraint=eastwest;rotatable=0;whiteSpace=wrap;html=1;" parent="O3rCFAfjAUZ07n1w3Qb9-30" vertex="1">
          <mxGeometry y="30" width="195" height="30" as="geometry" />
        </mxCell>
        <mxCell id="O3rCFAfjAUZ07n1w3Qb9-32" value="text_reviews_count" style="text;strokeColor=none;fillColor=none;align=left;verticalAlign=middle;spacingLeft=4;spacingRight=4;overflow=hidden;points=[[0,0.5],[1,0.5]];portConstraint=eastwest;rotatable=0;whiteSpace=wrap;html=1;" parent="O3rCFAfjAUZ07n1w3Qb9-30" vertex="1">
          <mxGeometry y="60" width="195" height="30" as="geometry" />
        </mxCell>
        <mxCell id="O3rCFAfjAUZ07n1w3Qb9-33" value="original_publication_month" style="text;strokeColor=none;fillColor=none;align=left;verticalAlign=middle;spacingLeft=4;spacingRight=4;overflow=hidden;points=[[0,0.5],[1,0.5]];portConstraint=eastwest;rotatable=0;whiteSpace=wrap;html=1;" parent="O3rCFAfjAUZ07n1w3Qb9-30" vertex="1">
          <mxGeometry y="90" width="195" height="30" as="geometry" />
        </mxCell>
        <mxCell id="O3rCFAfjAUZ07n1w3Qb9-34" value="default_description_language_code" style="text;html=1;align=center;verticalAlign=middle;resizable=0;points=[];autosize=1;strokeColor=none;fillColor=none;" parent="O3rCFAfjAUZ07n1w3Qb9-30" vertex="1">
          <mxGeometry y="120" width="195" height="30" as="geometry" />
        </mxCell>
        <mxCell id="O3rCFAfjAUZ07n1w3Qb9-35" value="text_reviews_count" style="text;html=1;align=center;verticalAlign=middle;resizable=0;points=[];autosize=1;strokeColor=none;fillColor=none;" parent="O3rCFAfjAUZ07n1w3Qb9-30" vertex="1">
          <mxGeometry y="150" width="195" height="30" as="geometry" />
        </mxCell>
        <mxCell id="O3rCFAfjAUZ07n1w3Qb9-36" value="best_book_id" style="text;html=1;align=center;verticalAlign=middle;resizable=0;points=[];autosize=1;strokeColor=none;fillColor=none;" parent="O3rCFAfjAUZ07n1w3Qb9-30" vertex="1">
          <mxGeometry y="180" width="195" height="30" as="geometry" />
        </mxCell>
        <mxCell id="O3rCFAfjAUZ07n1w3Qb9-37" value="original_publication_year" style="text;html=1;align=center;verticalAlign=middle;resizable=0;points=[];autosize=1;strokeColor=none;fillColor=none;" parent="O3rCFAfjAUZ07n1w3Qb9-30" vertex="1">
          <mxGeometry y="210" width="195" height="30" as="geometry" />
        </mxCell>
        <mxCell id="O3rCFAfjAUZ07n1w3Qb9-38" value="original_title" style="text;html=1;align=center;verticalAlign=middle;resizable=0;points=[];autosize=1;strokeColor=none;fillColor=none;" parent="O3rCFAfjAUZ07n1w3Qb9-30" vertex="1">
          <mxGeometry y="240" width="195" height="30" as="geometry" />
        </mxCell>
        <mxCell id="O3rCFAfjAUZ07n1w3Qb9-39" value="rating_dist" style="text;html=1;align=center;verticalAlign=middle;resizable=0;points=[];autosize=1;strokeColor=none;fillColor=none;" parent="O3rCFAfjAUZ07n1w3Qb9-30" vertex="1">
          <mxGeometry y="270" width="195" height="30" as="geometry" />
        </mxCell>
        <mxCell id="O3rCFAfjAUZ07n1w3Qb9-40" value="default_chaptering_book_id" style="text;html=1;align=center;verticalAlign=middle;resizable=0;points=[];autosize=1;strokeColor=none;fillColor=none;" parent="O3rCFAfjAUZ07n1w3Qb9-30" vertex="1">
          <mxGeometry y="300" width="195" height="30" as="geometry" />
        </mxCell>
        <mxCell id="O3rCFAfjAUZ07n1w3Qb9-41" value="original_publication_day" style="text;html=1;align=center;verticalAlign=middle;resizable=0;points=[];autosize=1;strokeColor=none;fillColor=none;" parent="O3rCFAfjAUZ07n1w3Qb9-30" vertex="1">
          <mxGeometry y="330" width="195" height="30" as="geometry" />
        </mxCell>
        <mxCell id="O3rCFAfjAUZ07n1w3Qb9-42" value="original_language_id" style="text;html=1;align=center;verticalAlign=middle;resizable=0;points=[];autosize=1;strokeColor=none;fillColor=none;" parent="O3rCFAfjAUZ07n1w3Qb9-30" vertex="1">
          <mxGeometry y="360" width="195" height="30" as="geometry" />
        </mxCell>
        <mxCell id="O3rCFAfjAUZ07n1w3Qb9-43" value="ratings_count" style="text;html=1;align=center;verticalAlign=middle;resizable=0;points=[];autosize=1;strokeColor=none;fillColor=none;" parent="O3rCFAfjAUZ07n1w3Qb9-30" vertex="1">
          <mxGeometry y="390" width="195" height="30" as="geometry" />
        </mxCell>
        <mxCell id="O3rCFAfjAUZ07n1w3Qb9-44" value="media_type" style="text;html=1;align=center;verticalAlign=middle;resizable=0;points=[];autosize=1;strokeColor=none;fillColor=none;" parent="O3rCFAfjAUZ07n1w3Qb9-30" vertex="1">
          <mxGeometry y="420" width="195" height="30" as="geometry" />
        </mxCell>
        <mxCell id="O3rCFAfjAUZ07n1w3Qb9-45" value="ratings_sum" style="text;html=1;align=center;verticalAlign=middle;resizable=0;points=[];autosize=1;strokeColor=none;fillColor=none;" parent="O3rCFAfjAUZ07n1w3Qb9-30" vertex="1">
          <mxGeometry y="450" width="195" height="30" as="geometry" />
        </mxCell>
        <mxCell id="O3rCFAfjAUZ07n1w3Qb9-46" value="work_id" style="text;html=1;align=center;verticalAlign=middle;resizable=0;points=[];autosize=1;strokeColor=none;fillColor=none;" parent="O3rCFAfjAUZ07n1w3Qb9-30" vertex="1">
          <mxGeometry y="480" width="195" height="30" as="geometry" />
        </mxCell>
        <mxCell id="O3rCFAfjAUZ07n1w3Qb9-47" value="goodreads_book_authors" style="swimlane;fontStyle=0;childLayout=stackLayout;horizontal=1;startSize=26;horizontalStack=0;resizeParent=1;resizeParentMax=0;resizeLast=0;collapsible=1;marginBottom=0;align=center;fontSize=14;" parent="1" vertex="1">
          <mxGeometry x="-162.5" y="-240" width="190" height="176" as="geometry" />
        </mxCell>
        <mxCell id="O3rCFAfjAUZ07n1w3Qb9-48" value="average_rating" style="text;strokeColor=none;fillColor=none;spacingLeft=4;spacingRight=4;overflow=hidden;rotatable=0;points=[[0,0.5],[1,0.5]];portConstraint=eastwest;fontSize=12;whiteSpace=wrap;html=1;" parent="O3rCFAfjAUZ07n1w3Qb9-47" vertex="1">
          <mxGeometry y="26" width="190" height="30" as="geometry" />
        </mxCell>
        <mxCell id="O3rCFAfjAUZ07n1w3Qb9-49" value="author_id" style="text;strokeColor=none;fillColor=none;spacingLeft=4;spacingRight=4;overflow=hidden;rotatable=0;points=[[0,0.5],[1,0.5]];portConstraint=eastwest;fontSize=12;whiteSpace=wrap;html=1;" parent="O3rCFAfjAUZ07n1w3Qb9-47" vertex="1">
          <mxGeometry y="56" width="190" height="30" as="geometry" />
        </mxCell>
        <mxCell id="O3rCFAfjAUZ07n1w3Qb9-138" style="edgeStyle=orthogonalEdgeStyle;rounded=0;orthogonalLoop=1;jettySize=auto;html=1;exitX=1;exitY=0.5;exitDx=0;exitDy=0;endArrow=none;startFill=0;" parent="O3rCFAfjAUZ07n1w3Qb9-47" source="O3rCFAfjAUZ07n1w3Qb9-50" edge="1">
          <mxGeometry relative="1" as="geometry">
            <mxPoint x="432.5" y="335" as="targetPoint" />
          </mxGeometry>
        </mxCell>
        <mxCell id="O3rCFAfjAUZ07n1w3Qb9-50" value="text_reviews_count" style="text;strokeColor=none;fillColor=none;spacingLeft=4;spacingRight=4;overflow=hidden;rotatable=0;points=[[0,0.5],[1,0.5]];portConstraint=eastwest;fontSize=12;whiteSpace=wrap;html=1;" parent="O3rCFAfjAUZ07n1w3Qb9-47" vertex="1">
          <mxGeometry y="86" width="190" height="30" as="geometry" />
        </mxCell>
        <mxCell id="O3rCFAfjAUZ07n1w3Qb9-51" value="name" style="text;html=1;align=center;verticalAlign=middle;resizable=0;points=[];autosize=1;strokeColor=none;fillColor=none;" parent="O3rCFAfjAUZ07n1w3Qb9-47" vertex="1">
          <mxGeometry y="116" width="190" height="30" as="geometry" />
        </mxCell>
        <mxCell id="O3rCFAfjAUZ07n1w3Qb9-52" value="ratings_count" style="text;html=1;align=center;verticalAlign=middle;resizable=0;points=[];autosize=1;strokeColor=none;fillColor=none;" parent="O3rCFAfjAUZ07n1w3Qb9-47" vertex="1">
          <mxGeometry y="146" width="190" height="30" as="geometry" />
        </mxCell>
        <mxCell id="O3rCFAfjAUZ07n1w3Qb9-53" value="goodreads_book_series" style="swimlane;fontStyle=0;childLayout=stackLayout;horizontal=1;startSize=26;horizontalStack=0;resizeParent=1;resizeParentMax=0;resizeLast=0;collapsible=1;marginBottom=0;align=center;fontSize=14;" parent="1" vertex="1">
          <mxGeometry x="210" y="120" width="160" height="236" as="geometry" />
        </mxCell>
        <mxCell id="O3rCFAfjAUZ07n1w3Qb9-54" value="numbered" style="text;strokeColor=none;fillColor=none;spacingLeft=4;spacingRight=4;overflow=hidden;rotatable=0;points=[[0,0.5],[1,0.5]];portConstraint=eastwest;fontSize=12;whiteSpace=wrap;html=1;" parent="O3rCFAfjAUZ07n1w3Qb9-53" vertex="1">
          <mxGeometry y="26" width="160" height="30" as="geometry" />
        </mxCell>
        <mxCell id="O3rCFAfjAUZ07n1w3Qb9-55" value="note" style="text;strokeColor=none;fillColor=none;spacingLeft=4;spacingRight=4;overflow=hidden;rotatable=0;points=[[0,0.5],[1,0.5]];portConstraint=eastwest;fontSize=12;whiteSpace=wrap;html=1;" parent="O3rCFAfjAUZ07n1w3Qb9-53" vertex="1">
          <mxGeometry y="56" width="160" height="30" as="geometry" />
        </mxCell>
        <mxCell id="O3rCFAfjAUZ07n1w3Qb9-56" value="description" style="text;strokeColor=none;fillColor=none;spacingLeft=4;spacingRight=4;overflow=hidden;rotatable=0;points=[[0,0.5],[1,0.5]];portConstraint=eastwest;fontSize=12;whiteSpace=wrap;html=1;" parent="O3rCFAfjAUZ07n1w3Qb9-53" vertex="1">
          <mxGeometry y="86" width="160" height="30" as="geometry" />
        </mxCell>
        <mxCell id="O3rCFAfjAUZ07n1w3Qb9-57" value="title" style="text;strokeColor=none;fillColor=none;spacingLeft=4;spacingRight=4;overflow=hidden;rotatable=0;points=[[0,0.5],[1,0.5]];portConstraint=eastwest;fontSize=12;whiteSpace=wrap;html=1;" parent="O3rCFAfjAUZ07n1w3Qb9-53" vertex="1">
          <mxGeometry y="116" width="160" height="30" as="geometry" />
        </mxCell>
        <mxCell id="O3rCFAfjAUZ07n1w3Qb9-59" value="series_works_count" style="text;strokeColor=none;fillColor=none;spacingLeft=4;spacingRight=4;overflow=hidden;rotatable=0;points=[[0,0.5],[1,0.5]];portConstraint=eastwest;fontSize=12;whiteSpace=wrap;html=1;" parent="O3rCFAfjAUZ07n1w3Qb9-53" vertex="1">
          <mxGeometry y="146" width="160" height="30" as="geometry" />
        </mxCell>
        <mxCell id="O3rCFAfjAUZ07n1w3Qb9-60" value="series_id" style="text;strokeColor=none;fillColor=none;spacingLeft=4;spacingRight=4;overflow=hidden;rotatable=0;points=[[0,0.5],[1,0.5]];portConstraint=eastwest;fontSize=12;whiteSpace=wrap;html=1;" parent="O3rCFAfjAUZ07n1w3Qb9-53" vertex="1">
          <mxGeometry y="176" width="160" height="30" as="geometry" />
        </mxCell>
        <mxCell id="O3rCFAfjAUZ07n1w3Qb9-61" value="primary_work_count" style="text;strokeColor=none;fillColor=none;spacingLeft=4;spacingRight=4;overflow=hidden;rotatable=0;points=[[0,0.5],[1,0.5]];portConstraint=eastwest;fontSize=12;whiteSpace=wrap;html=1;" parent="O3rCFAfjAUZ07n1w3Qb9-53" vertex="1">
          <mxGeometry y="206" width="160" height="30" as="geometry" />
        </mxCell>
        <mxCell id="O3rCFAfjAUZ07n1w3Qb9-62" value="goodreads_books" style="swimlane;fontStyle=0;childLayout=stackLayout;horizontal=1;startSize=26;horizontalStack=0;resizeParent=1;resizeParentMax=0;resizeLast=0;collapsible=1;marginBottom=0;align=center;fontSize=14;" parent="1" vertex="1">
          <mxGeometry x="510" y="-140" width="160" height="896" as="geometry" />
        </mxCell>
        <mxCell id="O3rCFAfjAUZ07n1w3Qb9-63" value="isbn" style="text;strokeColor=none;fillColor=none;spacingLeft=4;spacingRight=4;overflow=hidden;rotatable=0;points=[[0,0.5],[1,0.5]];portConstraint=eastwest;fontSize=12;whiteSpace=wrap;html=1;" parent="O3rCFAfjAUZ07n1w3Qb9-62" vertex="1">
          <mxGeometry y="26" width="160" height="30" as="geometry" />
        </mxCell>
        <mxCell id="O3rCFAfjAUZ07n1w3Qb9-64" value="text_reviews_count" style="text;strokeColor=none;fillColor=none;spacingLeft=4;spacingRight=4;overflow=hidden;rotatable=0;points=[[0,0.5],[1,0.5]];portConstraint=eastwest;fontSize=12;whiteSpace=wrap;html=1;" parent="O3rCFAfjAUZ07n1w3Qb9-62" vertex="1">
          <mxGeometry y="56" width="160" height="30" as="geometry" />
        </mxCell>
        <mxCell id="O3rCFAfjAUZ07n1w3Qb9-65" value="series" style="text;strokeColor=none;fillColor=none;spacingLeft=4;spacingRight=4;overflow=hidden;rotatable=0;points=[[0,0.5],[1,0.5]];portConstraint=eastwest;fontSize=12;whiteSpace=wrap;html=1;" parent="O3rCFAfjAUZ07n1w3Qb9-62" vertex="1">
          <mxGeometry y="86" width="160" height="30" as="geometry" />
        </mxCell>
        <mxCell id="O3rCFAfjAUZ07n1w3Qb9-66" value="country_code" style="text;strokeColor=none;fillColor=none;spacingLeft=4;spacingRight=4;overflow=hidden;rotatable=0;points=[[0,0.5],[1,0.5]];portConstraint=eastwest;fontSize=12;whiteSpace=wrap;html=1;" parent="O3rCFAfjAUZ07n1w3Qb9-62" vertex="1">
          <mxGeometry y="116" width="160" height="30" as="geometry" />
        </mxCell>
        <mxCell id="O3rCFAfjAUZ07n1w3Qb9-67" value="language_code" style="text;strokeColor=none;fillColor=none;spacingLeft=4;spacingRight=4;overflow=hidden;rotatable=0;points=[[0,0.5],[1,0.5]];portConstraint=eastwest;fontSize=12;whiteSpace=wrap;html=1;" parent="O3rCFAfjAUZ07n1w3Qb9-62" vertex="1">
          <mxGeometry y="146" width="160" height="30" as="geometry" />
        </mxCell>
        <mxCell id="O3rCFAfjAUZ07n1w3Qb9-68" value="popular_shelves" style="text;strokeColor=none;fillColor=none;spacingLeft=4;spacingRight=4;overflow=hidden;rotatable=0;points=[[0,0.5],[1,0.5]];portConstraint=eastwest;fontSize=12;whiteSpace=wrap;html=1;" parent="O3rCFAfjAUZ07n1w3Qb9-62" vertex="1">
          <mxGeometry y="176" width="160" height="30" as="geometry" />
        </mxCell>
        <mxCell id="O3rCFAfjAUZ07n1w3Qb9-69" value="asin" style="text;strokeColor=none;fillColor=none;spacingLeft=4;spacingRight=4;overflow=hidden;rotatable=0;points=[[0,0.5],[1,0.5]];portConstraint=eastwest;fontSize=12;whiteSpace=wrap;html=1;" parent="O3rCFAfjAUZ07n1w3Qb9-62" vertex="1">
          <mxGeometry y="206" width="160" height="30" as="geometry" />
        </mxCell>
        <mxCell id="O3rCFAfjAUZ07n1w3Qb9-71" value="is_ebook" style="text;strokeColor=none;fillColor=none;spacingLeft=4;spacingRight=4;overflow=hidden;rotatable=0;points=[[0,0.5],[1,0.5]];portConstraint=eastwest;fontSize=12;whiteSpace=wrap;html=1;" parent="O3rCFAfjAUZ07n1w3Qb9-62" vertex="1">
          <mxGeometry y="236" width="160" height="30" as="geometry" />
        </mxCell>
        <mxCell id="O3rCFAfjAUZ07n1w3Qb9-76" value="average_rating" style="text;strokeColor=none;fillColor=none;spacingLeft=4;spacingRight=4;overflow=hidden;rotatable=0;points=[[0,0.5],[1,0.5]];portConstraint=eastwest;fontSize=12;whiteSpace=wrap;html=1;" parent="O3rCFAfjAUZ07n1w3Qb9-62" vertex="1">
          <mxGeometry y="266" width="160" height="30" as="geometry" />
        </mxCell>
        <mxCell id="O3rCFAfjAUZ07n1w3Qb9-74" value="kindle_asin" style="text;strokeColor=none;fillColor=none;spacingLeft=4;spacingRight=4;overflow=hidden;rotatable=0;points=[[0,0.5],[1,0.5]];portConstraint=eastwest;fontSize=12;whiteSpace=wrap;html=1;" parent="O3rCFAfjAUZ07n1w3Qb9-62" vertex="1">
          <mxGeometry y="296" width="160" height="30" as="geometry" />
        </mxCell>
        <mxCell id="O3rCFAfjAUZ07n1w3Qb9-75" value="similar_books" style="text;strokeColor=none;fillColor=none;spacingLeft=4;spacingRight=4;overflow=hidden;rotatable=0;points=[[0,0.5],[1,0.5]];portConstraint=eastwest;fontSize=12;whiteSpace=wrap;html=1;" parent="O3rCFAfjAUZ07n1w3Qb9-62" vertex="1">
          <mxGeometry y="326" width="160" height="30" as="geometry" />
        </mxCell>
        <mxCell id="O3rCFAfjAUZ07n1w3Qb9-73" value="description" style="text;strokeColor=none;fillColor=none;spacingLeft=4;spacingRight=4;overflow=hidden;rotatable=0;points=[[0,0.5],[1,0.5]];portConstraint=eastwest;fontSize=12;whiteSpace=wrap;html=1;" parent="O3rCFAfjAUZ07n1w3Qb9-62" vertex="1">
          <mxGeometry y="356" width="160" height="30" as="geometry" />
        </mxCell>
        <mxCell id="O3rCFAfjAUZ07n1w3Qb9-70" value="format" style="text;strokeColor=none;fillColor=none;spacingLeft=4;spacingRight=4;overflow=hidden;rotatable=0;points=[[0,0.5],[1,0.5]];portConstraint=eastwest;fontSize=12;whiteSpace=wrap;html=1;" parent="O3rCFAfjAUZ07n1w3Qb9-62" vertex="1">
          <mxGeometry y="386" width="160" height="30" as="geometry" />
        </mxCell>
        <mxCell id="O3rCFAfjAUZ07n1w3Qb9-72" value="link" style="text;strokeColor=none;fillColor=none;spacingLeft=4;spacingRight=4;overflow=hidden;rotatable=0;points=[[0,0.5],[1,0.5]];portConstraint=eastwest;fontSize=12;whiteSpace=wrap;html=1;" parent="O3rCFAfjAUZ07n1w3Qb9-62" vertex="1">
          <mxGeometry y="416" width="160" height="30" as="geometry" />
        </mxCell>
        <mxCell id="O3rCFAfjAUZ07n1w3Qb9-77" value="authors" style="text;strokeColor=none;fillColor=none;spacingLeft=4;spacingRight=4;overflow=hidden;rotatable=0;points=[[0,0.5],[1,0.5]];portConstraint=eastwest;fontSize=12;whiteSpace=wrap;html=1;" parent="O3rCFAfjAUZ07n1w3Qb9-62" vertex="1">
          <mxGeometry y="446" width="160" height="30" as="geometry" />
        </mxCell>
        <mxCell id="O3rCFAfjAUZ07n1w3Qb9-78" value="publisher" style="text;strokeColor=none;fillColor=none;spacingLeft=4;spacingRight=4;overflow=hidden;rotatable=0;points=[[0,0.5],[1,0.5]];portConstraint=eastwest;fontSize=12;whiteSpace=wrap;html=1;" parent="O3rCFAfjAUZ07n1w3Qb9-62" vertex="1">
          <mxGeometry y="476" width="160" height="30" as="geometry" />
        </mxCell>
        <mxCell id="O3rCFAfjAUZ07n1w3Qb9-79" value="num_pages" style="text;strokeColor=none;fillColor=none;spacingLeft=4;spacingRight=4;overflow=hidden;rotatable=0;points=[[0,0.5],[1,0.5]];portConstraint=eastwest;fontSize=12;whiteSpace=wrap;html=1;" parent="O3rCFAfjAUZ07n1w3Qb9-62" vertex="1">
          <mxGeometry y="506" width="160" height="30" as="geometry" />
        </mxCell>
        <mxCell id="O3rCFAfjAUZ07n1w3Qb9-80" value="publication_day" style="text;strokeColor=none;fillColor=none;spacingLeft=4;spacingRight=4;overflow=hidden;rotatable=0;points=[[0,0.5],[1,0.5]];portConstraint=eastwest;fontSize=12;whiteSpace=wrap;html=1;" parent="O3rCFAfjAUZ07n1w3Qb9-62" vertex="1">
          <mxGeometry y="536" width="160" height="30" as="geometry" />
        </mxCell>
        <mxCell id="O3rCFAfjAUZ07n1w3Qb9-81" value="isbn13" style="text;strokeColor=none;fillColor=none;spacingLeft=4;spacingRight=4;overflow=hidden;rotatable=0;points=[[0,0.5],[1,0.5]];portConstraint=eastwest;fontSize=12;whiteSpace=wrap;html=1;" parent="O3rCFAfjAUZ07n1w3Qb9-62" vertex="1">
          <mxGeometry y="566" width="160" height="30" as="geometry" />
        </mxCell>
        <mxCell id="O3rCFAfjAUZ07n1w3Qb9-83" value="publication_month" style="text;strokeColor=none;fillColor=none;spacingLeft=4;spacingRight=4;overflow=hidden;rotatable=0;points=[[0,0.5],[1,0.5]];portConstraint=eastwest;fontSize=12;whiteSpace=wrap;html=1;" parent="O3rCFAfjAUZ07n1w3Qb9-62" vertex="1">
          <mxGeometry y="596" width="160" height="30" as="geometry" />
        </mxCell>
        <mxCell id="O3rCFAfjAUZ07n1w3Qb9-84" value="edition_information" style="text;strokeColor=none;fillColor=none;spacingLeft=4;spacingRight=4;overflow=hidden;rotatable=0;points=[[0,0.5],[1,0.5]];portConstraint=eastwest;fontSize=12;whiteSpace=wrap;html=1;" parent="O3rCFAfjAUZ07n1w3Qb9-62" vertex="1">
          <mxGeometry y="626" width="160" height="30" as="geometry" />
        </mxCell>
        <mxCell id="O3rCFAfjAUZ07n1w3Qb9-85" value="publication_year" style="text;strokeColor=none;fillColor=none;spacingLeft=4;spacingRight=4;overflow=hidden;rotatable=0;points=[[0,0.5],[1,0.5]];portConstraint=eastwest;fontSize=12;whiteSpace=wrap;html=1;" parent="O3rCFAfjAUZ07n1w3Qb9-62" vertex="1">
          <mxGeometry y="656" width="160" height="30" as="geometry" />
        </mxCell>
        <mxCell id="O3rCFAfjAUZ07n1w3Qb9-86" value="url" style="text;strokeColor=none;fillColor=none;spacingLeft=4;spacingRight=4;overflow=hidden;rotatable=0;points=[[0,0.5],[1,0.5]];portConstraint=eastwest;fontSize=12;whiteSpace=wrap;html=1;" parent="O3rCFAfjAUZ07n1w3Qb9-62" vertex="1">
          <mxGeometry y="686" width="160" height="30" as="geometry" />
        </mxCell>
        <mxCell id="O3rCFAfjAUZ07n1w3Qb9-87" value="image_url" style="text;strokeColor=none;fillColor=none;spacingLeft=4;spacingRight=4;overflow=hidden;rotatable=0;points=[[0,0.5],[1,0.5]];portConstraint=eastwest;fontSize=12;whiteSpace=wrap;html=1;" parent="O3rCFAfjAUZ07n1w3Qb9-62" vertex="1">
          <mxGeometry y="716" width="160" height="30" as="geometry" />
        </mxCell>
        <mxCell id="O3rCFAfjAUZ07n1w3Qb9-88" value="book_id" style="text;strokeColor=none;fillColor=none;spacingLeft=4;spacingRight=4;overflow=hidden;rotatable=0;points=[[0,0.5],[1,0.5]];portConstraint=eastwest;fontSize=12;whiteSpace=wrap;html=1;" parent="O3rCFAfjAUZ07n1w3Qb9-62" vertex="1">
          <mxGeometry y="746" width="160" height="30" as="geometry" />
        </mxCell>
        <mxCell id="O3rCFAfjAUZ07n1w3Qb9-89" value="ratings_count" style="text;strokeColor=none;fillColor=none;spacingLeft=4;spacingRight=4;overflow=hidden;rotatable=0;points=[[0,0.5],[1,0.5]];portConstraint=eastwest;fontSize=12;whiteSpace=wrap;html=1;" parent="O3rCFAfjAUZ07n1w3Qb9-62" vertex="1">
          <mxGeometry y="776" width="160" height="30" as="geometry" />
        </mxCell>
        <mxCell id="O3rCFAfjAUZ07n1w3Qb9-90" value="work_id" style="text;strokeColor=none;fillColor=none;spacingLeft=4;spacingRight=4;overflow=hidden;rotatable=0;points=[[0,0.5],[1,0.5]];portConstraint=eastwest;fontSize=12;whiteSpace=wrap;html=1;" parent="O3rCFAfjAUZ07n1w3Qb9-62" vertex="1">
          <mxGeometry y="806" width="160" height="30" as="geometry" />
        </mxCell>
        <mxCell id="O3rCFAfjAUZ07n1w3Qb9-91" value="title" style="text;strokeColor=none;fillColor=none;spacingLeft=4;spacingRight=4;overflow=hidden;rotatable=0;points=[[0,0.5],[1,0.5]];portConstraint=eastwest;fontSize=12;whiteSpace=wrap;html=1;" parent="O3rCFAfjAUZ07n1w3Qb9-62" vertex="1">
          <mxGeometry y="836" width="160" height="30" as="geometry" />
        </mxCell>
        <mxCell id="O3rCFAfjAUZ07n1w3Qb9-92" value="title_without_series" style="text;strokeColor=none;fillColor=none;spacingLeft=4;spacingRight=4;overflow=hidden;rotatable=0;points=[[0,0.5],[1,0.5]];portConstraint=eastwest;fontSize=12;whiteSpace=wrap;html=1;" parent="O3rCFAfjAUZ07n1w3Qb9-62" vertex="1">
          <mxGeometry y="866" width="160" height="30" as="geometry" />
        </mxCell>
        <mxCell id="O3rCFAfjAUZ07n1w3Qb9-94" style="edgeStyle=orthogonalEdgeStyle;rounded=0;orthogonalLoop=1;jettySize=auto;html=1;exitX=0;exitY=0.5;exitDx=0;exitDy=0;entryX=1;entryY=0.5;entryDx=0;entryDy=0;endArrow=none;startFill=0;" parent="1" source="O3rCFAfjAUZ07n1w3Qb9-64" target="O3rCFAfjAUZ07n1w3Qb9-32" edge="1">
          <mxGeometry relative="1" as="geometry" />
        </mxCell>
        <mxCell id="O3rCFAfjAUZ07n1w3Qb9-96" value="goodreads_book_genres_initial" style="swimlane;fontStyle=0;childLayout=stackLayout;horizontal=1;startSize=26;horizontalStack=0;resizeParent=1;resizeParentMax=0;resizeLast=0;collapsible=1;marginBottom=0;align=center;fontSize=14;" parent="1" vertex="1">
          <mxGeometry x="792" y="580" width="210" height="86" as="geometry" />
        </mxCell>
        <mxCell id="O3rCFAfjAUZ07n1w3Qb9-97" value="book_id" style="text;strokeColor=none;fillColor=none;spacingLeft=4;spacingRight=4;overflow=hidden;rotatable=0;points=[[0,0.5],[1,0.5]];portConstraint=eastwest;fontSize=12;whiteSpace=wrap;html=1;" parent="O3rCFAfjAUZ07n1w3Qb9-96" vertex="1">
          <mxGeometry y="26" width="210" height="30" as="geometry" />
        </mxCell>
        <mxCell id="O3rCFAfjAUZ07n1w3Qb9-98" value="genres" style="text;strokeColor=none;fillColor=none;spacingLeft=4;spacingRight=4;overflow=hidden;rotatable=0;points=[[0,0.5],[1,0.5]];portConstraint=eastwest;fontSize=12;whiteSpace=wrap;html=1;" parent="O3rCFAfjAUZ07n1w3Qb9-96" vertex="1">
          <mxGeometry y="56" width="210" height="30" as="geometry" />
        </mxCell>
        <mxCell id="O3rCFAfjAUZ07n1w3Qb9-101" style="edgeStyle=orthogonalEdgeStyle;rounded=0;orthogonalLoop=1;jettySize=auto;html=1;exitX=1;exitY=0.5;exitDx=0;exitDy=0;entryX=0;entryY=0.5;entryDx=0;entryDy=0;" parent="1" source="O3rCFAfjAUZ07n1w3Qb9-88" target="O3rCFAfjAUZ07n1w3Qb9-97" edge="1">
          <mxGeometry relative="1" as="geometry">
            <mxPoint x="810" y="750" as="targetPoint" />
          </mxGeometry>
        </mxCell>
        <mxCell id="O3rCFAfjAUZ07n1w3Qb9-107" value="goodreads_books_mystery_thriller_crime" style="swimlane;fontStyle=0;childLayout=stackLayout;horizontal=1;startSize=26;horizontalStack=0;resizeParent=1;resizeParentMax=0;resizeLast=0;collapsible=1;marginBottom=0;align=center;fontSize=14;" parent="1" vertex="1">
          <mxGeometry x="433" y="1060" width="280" height="896" as="geometry" />
        </mxCell>
        <mxCell id="O3rCFAfjAUZ07n1w3Qb9-108" value="isbn" style="text;strokeColor=none;fillColor=none;spacingLeft=4;spacingRight=4;overflow=hidden;rotatable=0;points=[[0,0.5],[1,0.5]];portConstraint=eastwest;fontSize=12;whiteSpace=wrap;html=1;" parent="O3rCFAfjAUZ07n1w3Qb9-107" vertex="1">
          <mxGeometry y="26" width="280" height="30" as="geometry" />
        </mxCell>
        <mxCell id="O3rCFAfjAUZ07n1w3Qb9-109" value="text_reviews_count" style="text;strokeColor=none;fillColor=none;spacingLeft=4;spacingRight=4;overflow=hidden;rotatable=0;points=[[0,0.5],[1,0.5]];portConstraint=eastwest;fontSize=12;whiteSpace=wrap;html=1;" parent="O3rCFAfjAUZ07n1w3Qb9-107" vertex="1">
          <mxGeometry y="56" width="280" height="30" as="geometry" />
        </mxCell>
        <mxCell id="O3rCFAfjAUZ07n1w3Qb9-110" value="series" style="text;strokeColor=none;fillColor=none;spacingLeft=4;spacingRight=4;overflow=hidden;rotatable=0;points=[[0,0.5],[1,0.5]];portConstraint=eastwest;fontSize=12;whiteSpace=wrap;html=1;" parent="O3rCFAfjAUZ07n1w3Qb9-107" vertex="1">
          <mxGeometry y="86" width="280" height="30" as="geometry" />
        </mxCell>
        <mxCell id="O3rCFAfjAUZ07n1w3Qb9-111" value="country_code" style="text;strokeColor=none;fillColor=none;spacingLeft=4;spacingRight=4;overflow=hidden;rotatable=0;points=[[0,0.5],[1,0.5]];portConstraint=eastwest;fontSize=12;whiteSpace=wrap;html=1;" parent="O3rCFAfjAUZ07n1w3Qb9-107" vertex="1">
          <mxGeometry y="116" width="280" height="30" as="geometry" />
        </mxCell>
        <mxCell id="O3rCFAfjAUZ07n1w3Qb9-112" value="language_code" style="text;strokeColor=none;fillColor=none;spacingLeft=4;spacingRight=4;overflow=hidden;rotatable=0;points=[[0,0.5],[1,0.5]];portConstraint=eastwest;fontSize=12;whiteSpace=wrap;html=1;" parent="O3rCFAfjAUZ07n1w3Qb9-107" vertex="1">
          <mxGeometry y="146" width="280" height="30" as="geometry" />
        </mxCell>
        <mxCell id="O3rCFAfjAUZ07n1w3Qb9-113" value="popular_shelves" style="text;strokeColor=none;fillColor=none;spacingLeft=4;spacingRight=4;overflow=hidden;rotatable=0;points=[[0,0.5],[1,0.5]];portConstraint=eastwest;fontSize=12;whiteSpace=wrap;html=1;" parent="O3rCFAfjAUZ07n1w3Qb9-107" vertex="1">
          <mxGeometry y="176" width="280" height="30" as="geometry" />
        </mxCell>
        <mxCell id="O3rCFAfjAUZ07n1w3Qb9-114" value="asin" style="text;strokeColor=none;fillColor=none;spacingLeft=4;spacingRight=4;overflow=hidden;rotatable=0;points=[[0,0.5],[1,0.5]];portConstraint=eastwest;fontSize=12;whiteSpace=wrap;html=1;" parent="O3rCFAfjAUZ07n1w3Qb9-107" vertex="1">
          <mxGeometry y="206" width="280" height="30" as="geometry" />
        </mxCell>
        <mxCell id="O3rCFAfjAUZ07n1w3Qb9-115" value="is_ebook" style="text;strokeColor=none;fillColor=none;spacingLeft=4;spacingRight=4;overflow=hidden;rotatable=0;points=[[0,0.5],[1,0.5]];portConstraint=eastwest;fontSize=12;whiteSpace=wrap;html=1;" parent="O3rCFAfjAUZ07n1w3Qb9-107" vertex="1">
          <mxGeometry y="236" width="280" height="30" as="geometry" />
        </mxCell>
        <mxCell id="O3rCFAfjAUZ07n1w3Qb9-116" value="average_rating" style="text;strokeColor=none;fillColor=none;spacingLeft=4;spacingRight=4;overflow=hidden;rotatable=0;points=[[0,0.5],[1,0.5]];portConstraint=eastwest;fontSize=12;whiteSpace=wrap;html=1;" parent="O3rCFAfjAUZ07n1w3Qb9-107" vertex="1">
          <mxGeometry y="266" width="280" height="30" as="geometry" />
        </mxCell>
        <mxCell id="O3rCFAfjAUZ07n1w3Qb9-117" value="kindle_asin" style="text;strokeColor=none;fillColor=none;spacingLeft=4;spacingRight=4;overflow=hidden;rotatable=0;points=[[0,0.5],[1,0.5]];portConstraint=eastwest;fontSize=12;whiteSpace=wrap;html=1;" parent="O3rCFAfjAUZ07n1w3Qb9-107" vertex="1">
          <mxGeometry y="296" width="280" height="30" as="geometry" />
        </mxCell>
        <mxCell id="O3rCFAfjAUZ07n1w3Qb9-118" value="similar_books" style="text;strokeColor=none;fillColor=none;spacingLeft=4;spacingRight=4;overflow=hidden;rotatable=0;points=[[0,0.5],[1,0.5]];portConstraint=eastwest;fontSize=12;whiteSpace=wrap;html=1;" parent="O3rCFAfjAUZ07n1w3Qb9-107" vertex="1">
          <mxGeometry y="326" width="280" height="30" as="geometry" />
        </mxCell>
        <mxCell id="O3rCFAfjAUZ07n1w3Qb9-119" value="description" style="text;strokeColor=none;fillColor=none;spacingLeft=4;spacingRight=4;overflow=hidden;rotatable=0;points=[[0,0.5],[1,0.5]];portConstraint=eastwest;fontSize=12;whiteSpace=wrap;html=1;" parent="O3rCFAfjAUZ07n1w3Qb9-107" vertex="1">
          <mxGeometry y="356" width="280" height="30" as="geometry" />
        </mxCell>
        <mxCell id="O3rCFAfjAUZ07n1w3Qb9-120" value="format" style="text;strokeColor=none;fillColor=none;spacingLeft=4;spacingRight=4;overflow=hidden;rotatable=0;points=[[0,0.5],[1,0.5]];portConstraint=eastwest;fontSize=12;whiteSpace=wrap;html=1;" parent="O3rCFAfjAUZ07n1w3Qb9-107" vertex="1">
          <mxGeometry y="386" width="280" height="30" as="geometry" />
        </mxCell>
        <mxCell id="O3rCFAfjAUZ07n1w3Qb9-121" value="link" style="text;strokeColor=none;fillColor=none;spacingLeft=4;spacingRight=4;overflow=hidden;rotatable=0;points=[[0,0.5],[1,0.5]];portConstraint=eastwest;fontSize=12;whiteSpace=wrap;html=1;" parent="O3rCFAfjAUZ07n1w3Qb9-107" vertex="1">
          <mxGeometry y="416" width="280" height="30" as="geometry" />
        </mxCell>
        <mxCell id="O3rCFAfjAUZ07n1w3Qb9-122" value="authors" style="text;strokeColor=none;fillColor=none;spacingLeft=4;spacingRight=4;overflow=hidden;rotatable=0;points=[[0,0.5],[1,0.5]];portConstraint=eastwest;fontSize=12;whiteSpace=wrap;html=1;" parent="O3rCFAfjAUZ07n1w3Qb9-107" vertex="1">
          <mxGeometry y="446" width="280" height="30" as="geometry" />
        </mxCell>
        <mxCell id="O3rCFAfjAUZ07n1w3Qb9-123" value="publisher" style="text;strokeColor=none;fillColor=none;spacingLeft=4;spacingRight=4;overflow=hidden;rotatable=0;points=[[0,0.5],[1,0.5]];portConstraint=eastwest;fontSize=12;whiteSpace=wrap;html=1;" parent="O3rCFAfjAUZ07n1w3Qb9-107" vertex="1">
          <mxGeometry y="476" width="280" height="30" as="geometry" />
        </mxCell>
        <mxCell id="O3rCFAfjAUZ07n1w3Qb9-124" value="num_pages" style="text;strokeColor=none;fillColor=none;spacingLeft=4;spacingRight=4;overflow=hidden;rotatable=0;points=[[0,0.5],[1,0.5]];portConstraint=eastwest;fontSize=12;whiteSpace=wrap;html=1;" parent="O3rCFAfjAUZ07n1w3Qb9-107" vertex="1">
          <mxGeometry y="506" width="280" height="30" as="geometry" />
        </mxCell>
        <mxCell id="O3rCFAfjAUZ07n1w3Qb9-125" value="publication_day" style="text;strokeColor=none;fillColor=none;spacingLeft=4;spacingRight=4;overflow=hidden;rotatable=0;points=[[0,0.5],[1,0.5]];portConstraint=eastwest;fontSize=12;whiteSpace=wrap;html=1;" parent="O3rCFAfjAUZ07n1w3Qb9-107" vertex="1">
          <mxGeometry y="536" width="280" height="30" as="geometry" />
        </mxCell>
        <mxCell id="O3rCFAfjAUZ07n1w3Qb9-126" value="isbn13" style="text;strokeColor=none;fillColor=none;spacingLeft=4;spacingRight=4;overflow=hidden;rotatable=0;points=[[0,0.5],[1,0.5]];portConstraint=eastwest;fontSize=12;whiteSpace=wrap;html=1;" parent="O3rCFAfjAUZ07n1w3Qb9-107" vertex="1">
          <mxGeometry y="566" width="280" height="30" as="geometry" />
        </mxCell>
        <mxCell id="O3rCFAfjAUZ07n1w3Qb9-127" value="publication_month" style="text;strokeColor=none;fillColor=none;spacingLeft=4;spacingRight=4;overflow=hidden;rotatable=0;points=[[0,0.5],[1,0.5]];portConstraint=eastwest;fontSize=12;whiteSpace=wrap;html=1;" parent="O3rCFAfjAUZ07n1w3Qb9-107" vertex="1">
          <mxGeometry y="596" width="280" height="30" as="geometry" />
        </mxCell>
        <mxCell id="O3rCFAfjAUZ07n1w3Qb9-128" value="edition_information" style="text;strokeColor=none;fillColor=none;spacingLeft=4;spacingRight=4;overflow=hidden;rotatable=0;points=[[0,0.5],[1,0.5]];portConstraint=eastwest;fontSize=12;whiteSpace=wrap;html=1;" parent="O3rCFAfjAUZ07n1w3Qb9-107" vertex="1">
          <mxGeometry y="626" width="280" height="30" as="geometry" />
        </mxCell>
        <mxCell id="O3rCFAfjAUZ07n1w3Qb9-129" value="publication_year" style="text;strokeColor=none;fillColor=none;spacingLeft=4;spacingRight=4;overflow=hidden;rotatable=0;points=[[0,0.5],[1,0.5]];portConstraint=eastwest;fontSize=12;whiteSpace=wrap;html=1;" parent="O3rCFAfjAUZ07n1w3Qb9-107" vertex="1">
          <mxGeometry y="656" width="280" height="30" as="geometry" />
        </mxCell>
        <mxCell id="O3rCFAfjAUZ07n1w3Qb9-130" value="url" style="text;strokeColor=none;fillColor=none;spacingLeft=4;spacingRight=4;overflow=hidden;rotatable=0;points=[[0,0.5],[1,0.5]];portConstraint=eastwest;fontSize=12;whiteSpace=wrap;html=1;" parent="O3rCFAfjAUZ07n1w3Qb9-107" vertex="1">
          <mxGeometry y="686" width="280" height="30" as="geometry" />
        </mxCell>
        <mxCell id="O3rCFAfjAUZ07n1w3Qb9-131" value="image_url" style="text;strokeColor=none;fillColor=none;spacingLeft=4;spacingRight=4;overflow=hidden;rotatable=0;points=[[0,0.5],[1,0.5]];portConstraint=eastwest;fontSize=12;whiteSpace=wrap;html=1;" parent="O3rCFAfjAUZ07n1w3Qb9-107" vertex="1">
          <mxGeometry y="716" width="280" height="30" as="geometry" />
        </mxCell>
        <mxCell id="O3rCFAfjAUZ07n1w3Qb9-132" value="book_id" style="text;strokeColor=none;fillColor=none;spacingLeft=4;spacingRight=4;overflow=hidden;rotatable=0;points=[[0,0.5],[1,0.5]];portConstraint=eastwest;fontSize=12;whiteSpace=wrap;html=1;" parent="O3rCFAfjAUZ07n1w3Qb9-107" vertex="1">
          <mxGeometry y="746" width="280" height="30" as="geometry" />
        </mxCell>
        <mxCell id="O3rCFAfjAUZ07n1w3Qb9-133" value="ratings_count" style="text;strokeColor=none;fillColor=none;spacingLeft=4;spacingRight=4;overflow=hidden;rotatable=0;points=[[0,0.5],[1,0.5]];portConstraint=eastwest;fontSize=12;whiteSpace=wrap;html=1;" parent="O3rCFAfjAUZ07n1w3Qb9-107" vertex="1">
          <mxGeometry y="776" width="280" height="30" as="geometry" />
        </mxCell>
        <mxCell id="O3rCFAfjAUZ07n1w3Qb9-134" value="work_id" style="text;strokeColor=none;fillColor=none;spacingLeft=4;spacingRight=4;overflow=hidden;rotatable=0;points=[[0,0.5],[1,0.5]];portConstraint=eastwest;fontSize=12;whiteSpace=wrap;html=1;" parent="O3rCFAfjAUZ07n1w3Qb9-107" vertex="1">
          <mxGeometry y="806" width="280" height="30" as="geometry" />
        </mxCell>
        <mxCell id="O3rCFAfjAUZ07n1w3Qb9-135" value="title" style="text;strokeColor=none;fillColor=none;spacingLeft=4;spacingRight=4;overflow=hidden;rotatable=0;points=[[0,0.5],[1,0.5]];portConstraint=eastwest;fontSize=12;whiteSpace=wrap;html=1;" parent="O3rCFAfjAUZ07n1w3Qb9-107" vertex="1">
          <mxGeometry y="836" width="280" height="30" as="geometry" />
        </mxCell>
        <mxCell id="O3rCFAfjAUZ07n1w3Qb9-136" value="title_without_series" style="text;strokeColor=none;fillColor=none;spacingLeft=4;spacingRight=4;overflow=hidden;rotatable=0;points=[[0,0.5],[1,0.5]];portConstraint=eastwest;fontSize=12;whiteSpace=wrap;html=1;" parent="O3rCFAfjAUZ07n1w3Qb9-107" vertex="1">
          <mxGeometry y="866" width="280" height="30" as="geometry" />
        </mxCell>
        <mxCell id="O3rCFAfjAUZ07n1w3Qb9-137" style="edgeStyle=orthogonalEdgeStyle;rounded=0;orthogonalLoop=1;jettySize=auto;html=1;exitX=1;exitY=0.5;exitDx=0;exitDy=0;entryX=0;entryY=0.5;entryDx=0;entryDy=0;endArrow=none;startFill=0;" parent="1" source="O3rCFAfjAUZ07n1w3Qb9-60" target="O3rCFAfjAUZ07n1w3Qb9-65" edge="1">
          <mxGeometry relative="1" as="geometry">
            <Array as="points">
              <mxPoint x="410" y="311" />
              <mxPoint x="410" y="-39" />
            </Array>
          </mxGeometry>
        </mxCell>
        <mxCell id="O3rCFAfjAUZ07n1w3Qb9-139" value="goodreads_interactions_&#xa;mystery_thriller_crime" style="swimlane;fontStyle=0;childLayout=stackLayout;horizontal=1;startSize=40;horizontalStack=0;resizeParent=1;resizeParentMax=0;resizeLast=0;collapsible=1;marginBottom=0;align=center;fontSize=14;" parent="1" vertex="1">
          <mxGeometry x="880" y="1100" width="210" height="340" as="geometry" />
        </mxCell>
        <mxCell id="O3rCFAfjAUZ07n1w3Qb9-140" value="user_id" style="text;strokeColor=none;fillColor=none;spacingLeft=4;spacingRight=4;overflow=hidden;rotatable=0;points=[[0,0.5],[1,0.5]];portConstraint=eastwest;fontSize=12;whiteSpace=wrap;html=1;" parent="O3rCFAfjAUZ07n1w3Qb9-139" vertex="1">
          <mxGeometry y="40" width="210" height="30" as="geometry" />
        </mxCell>
        <mxCell id="O3rCFAfjAUZ07n1w3Qb9-141" value="book_id" style="text;strokeColor=none;fillColor=none;spacingLeft=4;spacingRight=4;overflow=hidden;rotatable=0;points=[[0,0.5],[1,0.5]];portConstraint=eastwest;fontSize=12;whiteSpace=wrap;html=1;" parent="O3rCFAfjAUZ07n1w3Qb9-139" vertex="1">
          <mxGeometry y="70" width="210" height="30" as="geometry" />
        </mxCell>
        <mxCell id="O3rCFAfjAUZ07n1w3Qb9-142" value="review_id" style="text;strokeColor=none;fillColor=none;spacingLeft=4;spacingRight=4;overflow=hidden;rotatable=0;points=[[0,0.5],[1,0.5]];portConstraint=eastwest;fontSize=12;whiteSpace=wrap;html=1;" parent="O3rCFAfjAUZ07n1w3Qb9-139" vertex="1">
          <mxGeometry y="100" width="210" height="30" as="geometry" />
        </mxCell>
        <mxCell id="O3rCFAfjAUZ07n1w3Qb9-143" value="is_read" style="text;strokeColor=none;fillColor=none;spacingLeft=4;spacingRight=4;overflow=hidden;rotatable=0;points=[[0,0.5],[1,0.5]];portConstraint=eastwest;fontSize=12;whiteSpace=wrap;html=1;" parent="O3rCFAfjAUZ07n1w3Qb9-139" vertex="1">
          <mxGeometry y="130" width="210" height="30" as="geometry" />
        </mxCell>
        <mxCell id="O3rCFAfjAUZ07n1w3Qb9-144" value="rating" style="text;strokeColor=none;fillColor=none;spacingLeft=4;spacingRight=4;overflow=hidden;rotatable=0;points=[[0,0.5],[1,0.5]];portConstraint=eastwest;fontSize=12;whiteSpace=wrap;html=1;" parent="O3rCFAfjAUZ07n1w3Qb9-139" vertex="1">
          <mxGeometry y="160" width="210" height="30" as="geometry" />
        </mxCell>
        <mxCell id="O3rCFAfjAUZ07n1w3Qb9-145" value="review_text_incomplete" style="text;strokeColor=none;fillColor=none;spacingLeft=4;spacingRight=4;overflow=hidden;rotatable=0;points=[[0,0.5],[1,0.5]];portConstraint=eastwest;fontSize=12;whiteSpace=wrap;html=1;" parent="O3rCFAfjAUZ07n1w3Qb9-139" vertex="1">
          <mxGeometry y="190" width="210" height="30" as="geometry" />
        </mxCell>
        <mxCell id="O3rCFAfjAUZ07n1w3Qb9-146" value="date_added" style="text;strokeColor=none;fillColor=none;spacingLeft=4;spacingRight=4;overflow=hidden;rotatable=0;points=[[0,0.5],[1,0.5]];portConstraint=eastwest;fontSize=12;whiteSpace=wrap;html=1;" parent="O3rCFAfjAUZ07n1w3Qb9-139" vertex="1">
          <mxGeometry y="220" width="210" height="30" as="geometry" />
        </mxCell>
        <mxCell id="O3rCFAfjAUZ07n1w3Qb9-148" value="date_updated" style="text;strokeColor=none;fillColor=none;spacingLeft=4;spacingRight=4;overflow=hidden;rotatable=0;points=[[0,0.5],[1,0.5]];portConstraint=eastwest;fontSize=12;whiteSpace=wrap;html=1;" parent="O3rCFAfjAUZ07n1w3Qb9-139" vertex="1">
          <mxGeometry y="250" width="210" height="30" as="geometry" />
        </mxCell>
        <mxCell id="O3rCFAfjAUZ07n1w3Qb9-149" value="read_at" style="text;strokeColor=none;fillColor=none;spacingLeft=4;spacingRight=4;overflow=hidden;rotatable=0;points=[[0,0.5],[1,0.5]];portConstraint=eastwest;fontSize=12;whiteSpace=wrap;html=1;" parent="O3rCFAfjAUZ07n1w3Qb9-139" vertex="1">
          <mxGeometry y="280" width="210" height="30" as="geometry" />
        </mxCell>
        <mxCell id="O3rCFAfjAUZ07n1w3Qb9-150" value="started_at" style="text;strokeColor=none;fillColor=none;spacingLeft=4;spacingRight=4;overflow=hidden;rotatable=0;points=[[0,0.5],[1,0.5]];portConstraint=eastwest;fontSize=12;whiteSpace=wrap;html=1;" parent="O3rCFAfjAUZ07n1w3Qb9-139" vertex="1">
          <mxGeometry y="310" width="210" height="30" as="geometry" />
        </mxCell>
        <mxCell id="O3rCFAfjAUZ07n1w3Qb9-152" value="goodreads_reviews_&#xa;mystery_thriller_crime" style="swimlane;fontStyle=0;childLayout=stackLayout;horizontal=1;startSize=40;horizontalStack=0;resizeParent=1;resizeParentMax=0;resizeLast=0;collapsible=1;marginBottom=0;align=center;fontSize=14;" parent="1" vertex="1">
          <mxGeometry x="1180" y="1100" width="210" height="370" as="geometry" />
        </mxCell>
        <mxCell id="O3rCFAfjAUZ07n1w3Qb9-153" value="user_id" style="text;strokeColor=none;fillColor=none;spacingLeft=4;spacingRight=4;overflow=hidden;rotatable=0;points=[[0,0.5],[1,0.5]];portConstraint=eastwest;fontSize=12;whiteSpace=wrap;html=1;" parent="O3rCFAfjAUZ07n1w3Qb9-152" vertex="1">
          <mxGeometry y="40" width="210" height="30" as="geometry" />
        </mxCell>
        <mxCell id="O3rCFAfjAUZ07n1w3Qb9-154" value="book_id" style="text;strokeColor=none;fillColor=none;spacingLeft=4;spacingRight=4;overflow=hidden;rotatable=0;points=[[0,0.5],[1,0.5]];portConstraint=eastwest;fontSize=12;whiteSpace=wrap;html=1;" parent="O3rCFAfjAUZ07n1w3Qb9-152" vertex="1">
          <mxGeometry y="70" width="210" height="30" as="geometry" />
        </mxCell>
        <mxCell id="O3rCFAfjAUZ07n1w3Qb9-155" value="review_id" style="text;strokeColor=none;fillColor=none;spacingLeft=4;spacingRight=4;overflow=hidden;rotatable=0;points=[[0,0.5],[1,0.5]];portConstraint=eastwest;fontSize=12;whiteSpace=wrap;html=1;" parent="O3rCFAfjAUZ07n1w3Qb9-152" vertex="1">
          <mxGeometry y="100" width="210" height="30" as="geometry" />
        </mxCell>
        <mxCell id="O3rCFAfjAUZ07n1w3Qb9-157" value="rating" style="text;strokeColor=none;fillColor=none;spacingLeft=4;spacingRight=4;overflow=hidden;rotatable=0;points=[[0,0.5],[1,0.5]];portConstraint=eastwest;fontSize=12;whiteSpace=wrap;html=1;" parent="O3rCFAfjAUZ07n1w3Qb9-152" vertex="1">
          <mxGeometry y="130" width="210" height="30" as="geometry" />
        </mxCell>
        <mxCell id="O3rCFAfjAUZ07n1w3Qb9-158" value="review_text" style="text;strokeColor=none;fillColor=none;spacingLeft=4;spacingRight=4;overflow=hidden;rotatable=0;points=[[0,0.5],[1,0.5]];portConstraint=eastwest;fontSize=12;whiteSpace=wrap;html=1;" parent="O3rCFAfjAUZ07n1w3Qb9-152" vertex="1">
          <mxGeometry y="160" width="210" height="30" as="geometry" />
        </mxCell>
        <mxCell id="O3rCFAfjAUZ07n1w3Qb9-159" value="date_added" style="text;strokeColor=none;fillColor=none;spacingLeft=4;spacingRight=4;overflow=hidden;rotatable=0;points=[[0,0.5],[1,0.5]];portConstraint=eastwest;fontSize=12;whiteSpace=wrap;html=1;" parent="O3rCFAfjAUZ07n1w3Qb9-152" vertex="1">
          <mxGeometry y="190" width="210" height="30" as="geometry" />
        </mxCell>
        <mxCell id="O3rCFAfjAUZ07n1w3Qb9-160" value="date_updated" style="text;strokeColor=none;fillColor=none;spacingLeft=4;spacingRight=4;overflow=hidden;rotatable=0;points=[[0,0.5],[1,0.5]];portConstraint=eastwest;fontSize=12;whiteSpace=wrap;html=1;" parent="O3rCFAfjAUZ07n1w3Qb9-152" vertex="1">
          <mxGeometry y="220" width="210" height="30" as="geometry" />
        </mxCell>
        <mxCell id="O3rCFAfjAUZ07n1w3Qb9-161" value="read_at" style="text;strokeColor=none;fillColor=none;spacingLeft=4;spacingRight=4;overflow=hidden;rotatable=0;points=[[0,0.5],[1,0.5]];portConstraint=eastwest;fontSize=12;whiteSpace=wrap;html=1;" parent="O3rCFAfjAUZ07n1w3Qb9-152" vertex="1">
          <mxGeometry y="250" width="210" height="30" as="geometry" />
        </mxCell>
        <mxCell id="O3rCFAfjAUZ07n1w3Qb9-162" value="started_at" style="text;strokeColor=none;fillColor=none;spacingLeft=4;spacingRight=4;overflow=hidden;rotatable=0;points=[[0,0.5],[1,0.5]];portConstraint=eastwest;fontSize=12;whiteSpace=wrap;html=1;" parent="O3rCFAfjAUZ07n1w3Qb9-152" vertex="1">
          <mxGeometry y="280" width="210" height="30" as="geometry" />
        </mxCell>
        <mxCell id="O3rCFAfjAUZ07n1w3Qb9-163" value="n_votes" style="text;strokeColor=none;fillColor=none;spacingLeft=4;spacingRight=4;overflow=hidden;rotatable=0;points=[[0,0.5],[1,0.5]];portConstraint=eastwest;fontSize=12;whiteSpace=wrap;html=1;" parent="O3rCFAfjAUZ07n1w3Qb9-152" vertex="1">
          <mxGeometry y="310" width="210" height="30" as="geometry" />
        </mxCell>
        <mxCell id="O3rCFAfjAUZ07n1w3Qb9-164" value="n_comments" style="text;strokeColor=none;fillColor=none;spacingLeft=4;spacingRight=4;overflow=hidden;rotatable=0;points=[[0,0.5],[1,0.5]];portConstraint=eastwest;fontSize=12;whiteSpace=wrap;html=1;" parent="O3rCFAfjAUZ07n1w3Qb9-152" vertex="1">
          <mxGeometry y="340" width="210" height="30" as="geometry" />
        </mxCell>
        <mxCell id="O3rCFAfjAUZ07n1w3Qb9-165" value="goodreads_interactions" style="swimlane;fontStyle=0;childLayout=stackLayout;horizontal=1;startSize=40;horizontalStack=0;resizeParent=1;resizeParentMax=0;resizeLast=0;collapsible=1;marginBottom=0;align=center;fontSize=14;" parent="1" vertex="1">
          <mxGeometry x="820" y="30" width="210" height="190" as="geometry" />
        </mxCell>
        <mxCell id="O3rCFAfjAUZ07n1w3Qb9-166" value="user_id" style="text;strokeColor=none;fillColor=none;spacingLeft=4;spacingRight=4;overflow=hidden;rotatable=0;points=[[0,0.5],[1,0.5]];portConstraint=eastwest;fontSize=12;whiteSpace=wrap;html=1;" parent="O3rCFAfjAUZ07n1w3Qb9-165" vertex="1">
          <mxGeometry y="40" width="210" height="30" as="geometry" />
        </mxCell>
        <mxCell id="O3rCFAfjAUZ07n1w3Qb9-167" value="book_id" style="text;strokeColor=none;fillColor=none;spacingLeft=4;spacingRight=4;overflow=hidden;rotatable=0;points=[[0,0.5],[1,0.5]];portConstraint=eastwest;fontSize=12;whiteSpace=wrap;html=1;" parent="O3rCFAfjAUZ07n1w3Qb9-165" vertex="1">
          <mxGeometry y="70" width="210" height="30" as="geometry" />
        </mxCell>
        <mxCell id="O3rCFAfjAUZ07n1w3Qb9-169" value="is_read" style="text;strokeColor=none;fillColor=none;spacingLeft=4;spacingRight=4;overflow=hidden;rotatable=0;points=[[0,0.5],[1,0.5]];portConstraint=eastwest;fontSize=12;whiteSpace=wrap;html=1;" parent="O3rCFAfjAUZ07n1w3Qb9-165" vertex="1">
          <mxGeometry y="100" width="210" height="30" as="geometry" />
        </mxCell>
        <mxCell id="O3rCFAfjAUZ07n1w3Qb9-170" value="rating" style="text;strokeColor=none;fillColor=none;spacingLeft=4;spacingRight=4;overflow=hidden;rotatable=0;points=[[0,0.5],[1,0.5]];portConstraint=eastwest;fontSize=12;whiteSpace=wrap;html=1;" parent="O3rCFAfjAUZ07n1w3Qb9-165" vertex="1">
          <mxGeometry y="130" width="210" height="30" as="geometry" />
        </mxCell>
        <mxCell id="O3rCFAfjAUZ07n1w3Qb9-175" value="is_reviewed" style="text;strokeColor=none;fillColor=none;spacingLeft=4;spacingRight=4;overflow=hidden;rotatable=0;points=[[0,0.5],[1,0.5]];portConstraint=eastwest;fontSize=12;whiteSpace=wrap;html=1;" parent="O3rCFAfjAUZ07n1w3Qb9-165" vertex="1">
          <mxGeometry y="160" width="210" height="30" as="geometry" />
        </mxCell>
        <mxCell id="O3rCFAfjAUZ07n1w3Qb9-176" value="goodreads_reviews_dedup" style="swimlane;fontStyle=0;childLayout=stackLayout;horizontal=1;startSize=40;horizontalStack=0;resizeParent=1;resizeParentMax=0;resizeLast=0;collapsible=1;marginBottom=0;align=center;fontSize=14;" parent="1" vertex="1">
          <mxGeometry x="1170" y="30" width="210" height="370" as="geometry" />
        </mxCell>
        <mxCell id="O3rCFAfjAUZ07n1w3Qb9-177" value="user_id" style="text;strokeColor=none;fillColor=none;spacingLeft=4;spacingRight=4;overflow=hidden;rotatable=0;points=[[0,0.5],[1,0.5]];portConstraint=eastwest;fontSize=12;whiteSpace=wrap;html=1;" parent="O3rCFAfjAUZ07n1w3Qb9-176" vertex="1">
          <mxGeometry y="40" width="210" height="30" as="geometry" />
        </mxCell>
        <mxCell id="O3rCFAfjAUZ07n1w3Qb9-178" value="book_id" style="text;strokeColor=none;fillColor=none;spacingLeft=4;spacingRight=4;overflow=hidden;rotatable=0;points=[[0,0.5],[1,0.5]];portConstraint=eastwest;fontSize=12;whiteSpace=wrap;html=1;" parent="O3rCFAfjAUZ07n1w3Qb9-176" vertex="1">
          <mxGeometry y="70" width="210" height="30" as="geometry" />
        </mxCell>
        <mxCell id="O3rCFAfjAUZ07n1w3Qb9-179" value="review_id" style="text;strokeColor=none;fillColor=none;spacingLeft=4;spacingRight=4;overflow=hidden;rotatable=0;points=[[0,0.5],[1,0.5]];portConstraint=eastwest;fontSize=12;whiteSpace=wrap;html=1;" parent="O3rCFAfjAUZ07n1w3Qb9-176" vertex="1">
          <mxGeometry y="100" width="210" height="30" as="geometry" />
        </mxCell>
        <mxCell id="O3rCFAfjAUZ07n1w3Qb9-180" value="rating" style="text;strokeColor=none;fillColor=none;spacingLeft=4;spacingRight=4;overflow=hidden;rotatable=0;points=[[0,0.5],[1,0.5]];portConstraint=eastwest;fontSize=12;whiteSpace=wrap;html=1;" parent="O3rCFAfjAUZ07n1w3Qb9-176" vertex="1">
          <mxGeometry y="130" width="210" height="30" as="geometry" />
        </mxCell>
        <mxCell id="O3rCFAfjAUZ07n1w3Qb9-181" value="review_text" style="text;strokeColor=none;fillColor=none;spacingLeft=4;spacingRight=4;overflow=hidden;rotatable=0;points=[[0,0.5],[1,0.5]];portConstraint=eastwest;fontSize=12;whiteSpace=wrap;html=1;" parent="O3rCFAfjAUZ07n1w3Qb9-176" vertex="1">
          <mxGeometry y="160" width="210" height="30" as="geometry" />
        </mxCell>
        <mxCell id="O3rCFAfjAUZ07n1w3Qb9-182" value="date_added" style="text;strokeColor=none;fillColor=none;spacingLeft=4;spacingRight=4;overflow=hidden;rotatable=0;points=[[0,0.5],[1,0.5]];portConstraint=eastwest;fontSize=12;whiteSpace=wrap;html=1;" parent="O3rCFAfjAUZ07n1w3Qb9-176" vertex="1">
          <mxGeometry y="190" width="210" height="30" as="geometry" />
        </mxCell>
        <mxCell id="O3rCFAfjAUZ07n1w3Qb9-183" value="date_updated" style="text;strokeColor=none;fillColor=none;spacingLeft=4;spacingRight=4;overflow=hidden;rotatable=0;points=[[0,0.5],[1,0.5]];portConstraint=eastwest;fontSize=12;whiteSpace=wrap;html=1;" parent="O3rCFAfjAUZ07n1w3Qb9-176" vertex="1">
          <mxGeometry y="220" width="210" height="30" as="geometry" />
        </mxCell>
        <mxCell id="O3rCFAfjAUZ07n1w3Qb9-184" value="read_at" style="text;strokeColor=none;fillColor=none;spacingLeft=4;spacingRight=4;overflow=hidden;rotatable=0;points=[[0,0.5],[1,0.5]];portConstraint=eastwest;fontSize=12;whiteSpace=wrap;html=1;" parent="O3rCFAfjAUZ07n1w3Qb9-176" vertex="1">
          <mxGeometry y="250" width="210" height="30" as="geometry" />
        </mxCell>
        <mxCell id="O3rCFAfjAUZ07n1w3Qb9-185" value="started_at" style="text;strokeColor=none;fillColor=none;spacingLeft=4;spacingRight=4;overflow=hidden;rotatable=0;points=[[0,0.5],[1,0.5]];portConstraint=eastwest;fontSize=12;whiteSpace=wrap;html=1;" parent="O3rCFAfjAUZ07n1w3Qb9-176" vertex="1">
          <mxGeometry y="280" width="210" height="30" as="geometry" />
        </mxCell>
        <mxCell id="O3rCFAfjAUZ07n1w3Qb9-186" value="n_votes" style="text;strokeColor=none;fillColor=none;spacingLeft=4;spacingRight=4;overflow=hidden;rotatable=0;points=[[0,0.5],[1,0.5]];portConstraint=eastwest;fontSize=12;whiteSpace=wrap;html=1;" parent="O3rCFAfjAUZ07n1w3Qb9-176" vertex="1">
          <mxGeometry y="310" width="210" height="30" as="geometry" />
        </mxCell>
        <mxCell id="O3rCFAfjAUZ07n1w3Qb9-187" value="n_comments" style="text;strokeColor=none;fillColor=none;spacingLeft=4;spacingRight=4;overflow=hidden;rotatable=0;points=[[0,0.5],[1,0.5]];portConstraint=eastwest;fontSize=12;whiteSpace=wrap;html=1;" parent="O3rCFAfjAUZ07n1w3Qb9-176" vertex="1">
          <mxGeometry y="340" width="210" height="30" as="geometry" />
        </mxCell>
        <mxCell id="O3rCFAfjAUZ07n1w3Qb9-188" value="goodreads_reviews_dedup" style="swimlane;fontStyle=0;childLayout=stackLayout;horizontal=1;startSize=26;horizontalStack=0;resizeParent=1;resizeParentMax=0;resizeLast=0;collapsible=1;marginBottom=0;align=center;fontSize=14;" parent="1" vertex="1">
          <mxGeometry x="1290" y="-270" width="220" height="236" as="geometry" />
        </mxCell>
        <mxCell id="O3rCFAfjAUZ07n1w3Qb9-189" value="user_id" style="text;strokeColor=none;fillColor=none;spacingLeft=4;spacingRight=4;overflow=hidden;rotatable=0;points=[[0,0.5],[1,0.5]];portConstraint=eastwest;fontSize=12;whiteSpace=wrap;html=1;" parent="O3rCFAfjAUZ07n1w3Qb9-188" vertex="1">
          <mxGeometry y="26" width="220" height="30" as="geometry" />
        </mxCell>
        <mxCell id="O3rCFAfjAUZ07n1w3Qb9-190" value="timestamp" style="text;strokeColor=none;fillColor=none;spacingLeft=4;spacingRight=4;overflow=hidden;rotatable=0;points=[[0,0.5],[1,0.5]];portConstraint=eastwest;fontSize=12;whiteSpace=wrap;html=1;" parent="O3rCFAfjAUZ07n1w3Qb9-188" vertex="1">
          <mxGeometry y="56" width="220" height="30" as="geometry" />
        </mxCell>
        <mxCell id="O3rCFAfjAUZ07n1w3Qb9-191" value="review_sentences" style="text;strokeColor=none;fillColor=none;spacingLeft=4;spacingRight=4;overflow=hidden;rotatable=0;points=[[0,0.5],[1,0.5]];portConstraint=eastwest;fontSize=12;whiteSpace=wrap;html=1;" parent="O3rCFAfjAUZ07n1w3Qb9-188" vertex="1">
          <mxGeometry y="86" width="220" height="30" as="geometry" />
        </mxCell>
        <mxCell id="O3rCFAfjAUZ07n1w3Qb9-192" value="rating" style="text;strokeColor=none;fillColor=none;spacingLeft=4;spacingRight=4;overflow=hidden;rotatable=0;points=[[0,0.5],[1,0.5]];portConstraint=eastwest;fontSize=12;whiteSpace=wrap;html=1;" parent="O3rCFAfjAUZ07n1w3Qb9-188" vertex="1">
          <mxGeometry y="116" width="220" height="30" as="geometry" />
        </mxCell>
        <mxCell id="O3rCFAfjAUZ07n1w3Qb9-193" value="has_spoiler" style="text;strokeColor=none;fillColor=none;spacingLeft=4;spacingRight=4;overflow=hidden;rotatable=0;points=[[0,0.5],[1,0.5]];portConstraint=eastwest;fontSize=12;whiteSpace=wrap;html=1;" parent="O3rCFAfjAUZ07n1w3Qb9-188" vertex="1">
          <mxGeometry y="146" width="220" height="30" as="geometry" />
        </mxCell>
        <mxCell id="O3rCFAfjAUZ07n1w3Qb9-194" value="book_id" style="text;strokeColor=none;fillColor=none;spacingLeft=4;spacingRight=4;overflow=hidden;rotatable=0;points=[[0,0.5],[1,0.5]];portConstraint=eastwest;fontSize=12;whiteSpace=wrap;html=1;" parent="O3rCFAfjAUZ07n1w3Qb9-188" vertex="1">
          <mxGeometry y="176" width="220" height="30" as="geometry" />
        </mxCell>
        <mxCell id="O3rCFAfjAUZ07n1w3Qb9-195" value="review_id" style="text;strokeColor=none;fillColor=none;spacingLeft=4;spacingRight=4;overflow=hidden;rotatable=0;points=[[0,0.5],[1,0.5]];portConstraint=eastwest;fontSize=12;whiteSpace=wrap;html=1;" parent="O3rCFAfjAUZ07n1w3Qb9-188" vertex="1">
          <mxGeometry y="206" width="220" height="30" as="geometry" />
        </mxCell>
        <mxCell id="7CNXNeg8Kvt7FLpPpIKO-1" style="edgeStyle=orthogonalEdgeStyle;rounded=0;orthogonalLoop=1;jettySize=auto;html=1;exitX=0;exitY=0.5;exitDx=0;exitDy=0;entryX=1;entryY=0.5;entryDx=0;entryDy=0;startArrow=none;startFill=0;endArrow=none;" edge="1" parent="1" source="O3rCFAfjAUZ07n1w3Qb9-77" target="O3rCFAfjAUZ07n1w3Qb9-49">
          <mxGeometry relative="1" as="geometry">
            <Array as="points">
              <mxPoint x="450" y="485" />
              <mxPoint x="450" y="-169" />
            </Array>
          </mxGeometry>
        </mxCell>
        <mxCell id="7CNXNeg8Kvt7FLpPpIKO-3" value="" style="rounded=0;whiteSpace=wrap;html=1;fillColor=none;strokeColor=#d6b656;gradientColor=none;fillStyle=hatch;" vertex="1" parent="1">
          <mxGeometry x="1120" y="-370" width="580" height="820" as="geometry" />
        </mxCell>
        <mxCell id="O3rCFAfjAUZ07n1w3Qb9-196" value="goodreads_reviews_spoiler_raw" style="swimlane;fontStyle=0;childLayout=stackLayout;horizontal=1;startSize=40;horizontalStack=0;resizeParent=1;resizeParentMax=0;resizeLast=0;collapsible=1;marginBottom=0;align=center;fontSize=14;" parent="1" vertex="1">
          <mxGeometry x="1450" y="30" width="210" height="370" as="geometry" />
        </mxCell>
        <mxCell id="O3rCFAfjAUZ07n1w3Qb9-197" value="user_id" style="text;strokeColor=none;fillColor=none;spacingLeft=4;spacingRight=4;overflow=hidden;rotatable=0;points=[[0,0.5],[1,0.5]];portConstraint=eastwest;fontSize=12;whiteSpace=wrap;html=1;" parent="O3rCFAfjAUZ07n1w3Qb9-196" vertex="1">
          <mxGeometry y="40" width="210" height="30" as="geometry" />
        </mxCell>
        <mxCell id="O3rCFAfjAUZ07n1w3Qb9-198" value="book_id" style="text;strokeColor=none;fillColor=none;spacingLeft=4;spacingRight=4;overflow=hidden;rotatable=0;points=[[0,0.5],[1,0.5]];portConstraint=eastwest;fontSize=12;whiteSpace=wrap;html=1;" parent="O3rCFAfjAUZ07n1w3Qb9-196" vertex="1">
          <mxGeometry y="70" width="210" height="30" as="geometry" />
        </mxCell>
        <mxCell id="O3rCFAfjAUZ07n1w3Qb9-199" value="review_id" style="text;strokeColor=none;fillColor=none;spacingLeft=4;spacingRight=4;overflow=hidden;rotatable=0;points=[[0,0.5],[1,0.5]];portConstraint=eastwest;fontSize=12;whiteSpace=wrap;html=1;" parent="O3rCFAfjAUZ07n1w3Qb9-196" vertex="1">
          <mxGeometry y="100" width="210" height="30" as="geometry" />
        </mxCell>
        <mxCell id="O3rCFAfjAUZ07n1w3Qb9-200" value="rating" style="text;strokeColor=none;fillColor=none;spacingLeft=4;spacingRight=4;overflow=hidden;rotatable=0;points=[[0,0.5],[1,0.5]];portConstraint=eastwest;fontSize=12;whiteSpace=wrap;html=1;" parent="O3rCFAfjAUZ07n1w3Qb9-196" vertex="1">
          <mxGeometry y="130" width="210" height="30" as="geometry" />
        </mxCell>
        <mxCell id="O3rCFAfjAUZ07n1w3Qb9-201" value="review_text" style="text;strokeColor=none;fillColor=none;spacingLeft=4;spacingRight=4;overflow=hidden;rotatable=0;points=[[0,0.5],[1,0.5]];portConstraint=eastwest;fontSize=12;whiteSpace=wrap;html=1;" parent="O3rCFAfjAUZ07n1w3Qb9-196" vertex="1">
          <mxGeometry y="160" width="210" height="30" as="geometry" />
        </mxCell>
        <mxCell id="O3rCFAfjAUZ07n1w3Qb9-202" value="date_added" style="text;strokeColor=none;fillColor=none;spacingLeft=4;spacingRight=4;overflow=hidden;rotatable=0;points=[[0,0.5],[1,0.5]];portConstraint=eastwest;fontSize=12;whiteSpace=wrap;html=1;" parent="O3rCFAfjAUZ07n1w3Qb9-196" vertex="1">
          <mxGeometry y="190" width="210" height="30" as="geometry" />
        </mxCell>
        <mxCell id="O3rCFAfjAUZ07n1w3Qb9-203" value="date_updated" style="text;strokeColor=none;fillColor=none;spacingLeft=4;spacingRight=4;overflow=hidden;rotatable=0;points=[[0,0.5],[1,0.5]];portConstraint=eastwest;fontSize=12;whiteSpace=wrap;html=1;" parent="O3rCFAfjAUZ07n1w3Qb9-196" vertex="1">
          <mxGeometry y="220" width="210" height="30" as="geometry" />
        </mxCell>
        <mxCell id="O3rCFAfjAUZ07n1w3Qb9-204" value="read_at" style="text;strokeColor=none;fillColor=none;spacingLeft=4;spacingRight=4;overflow=hidden;rotatable=0;points=[[0,0.5],[1,0.5]];portConstraint=eastwest;fontSize=12;whiteSpace=wrap;html=1;" parent="O3rCFAfjAUZ07n1w3Qb9-196" vertex="1">
          <mxGeometry y="250" width="210" height="30" as="geometry" />
        </mxCell>
        <mxCell id="O3rCFAfjAUZ07n1w3Qb9-205" value="started_at" style="text;strokeColor=none;fillColor=none;spacingLeft=4;spacingRight=4;overflow=hidden;rotatable=0;points=[[0,0.5],[1,0.5]];portConstraint=eastwest;fontSize=12;whiteSpace=wrap;html=1;" parent="O3rCFAfjAUZ07n1w3Qb9-196" vertex="1">
          <mxGeometry y="280" width="210" height="30" as="geometry" />
        </mxCell>
        <mxCell id="O3rCFAfjAUZ07n1w3Qb9-206" value="n_votes" style="text;strokeColor=none;fillColor=none;spacingLeft=4;spacingRight=4;overflow=hidden;rotatable=0;points=[[0,0.5],[1,0.5]];portConstraint=eastwest;fontSize=12;whiteSpace=wrap;html=1;" parent="O3rCFAfjAUZ07n1w3Qb9-196" vertex="1">
          <mxGeometry y="310" width="210" height="30" as="geometry" />
        </mxCell>
        <mxCell id="O3rCFAfjAUZ07n1w3Qb9-207" value="n_comments" style="text;strokeColor=none;fillColor=none;spacingLeft=4;spacingRight=4;overflow=hidden;rotatable=0;points=[[0,0.5],[1,0.5]];portConstraint=eastwest;fontSize=12;whiteSpace=wrap;html=1;" parent="O3rCFAfjAUZ07n1w3Qb9-196" vertex="1">
          <mxGeometry y="340" width="210" height="30" as="geometry" />
        </mxCell>
      </root>
    </mxGraphModel>
  </diagram>
</mxfile>
